<svg width="83" height="14" viewBox="0 0 83 14" fill="none" xmlns="http://www.w3.org/2000/svg">
<g clip-path="url(#clip0_2001_7641)">
<path fill-rule="evenodd" clip-rule="evenodd" d="M53.0094 0.0494214H50.5163C44.3606 0.0494214 41.1812 7.54775 45.5879 11.9518C46.8866 13.2504 48.6466 13.9973 50.5163 13.9973H53.0094C53.7946 13.9973 54.4316 13.3575 54.4316 12.575V12.4734C54.4316 11.6882 53.7919 11.0512 53.0094 11.0512H50.5163C46.9854 11.0512 45.1157 6.73504 47.6719 4.17886C48.4187 3.43204 49.44 2.99549 50.5163 2.99549H53.0094C53.7946 2.99549 54.4316 2.35576 54.4316 1.57325V1.47166C54.4316 0.686409 53.7919 0.0494214 53.0094 0.0494214ZM37.7299 0.579329C40.319 1.65562 42.0433 4.19259 42.0433 7.02608V12.5778C42.0433 13.363 41.4036 14 40.6211 14H40.5195C39.7342 14 39.0972 13.3603 39.0972 12.5778V7.02608C39.0972 5.95254 38.6607 4.93116 37.9139 4.1816C35.3577 1.62542 31.0415 3.49794 31.0415 7.02608V12.5778C31.0415 13.363 30.4018 14 29.6193 14H29.5177C28.7325 14 28.0955 13.3603 28.0955 12.5778V1.42224C28.0955 0.636988 28.7352 0 29.5177 0H29.6193C30.3771 0 31.0004 0.595803 31.0415 1.34536C32.8976 0.0274563 35.3796 -0.398117 37.7326 0.579329H37.7299ZM22.1127 0.579329C16.4183 -1.78741 10.6387 3.99215 13.0055 9.6866C14.1257 12.3801 16.6571 14 19.6169 14H20.1359C20.9458 14 21.6103 13.3356 21.6103 12.5256C21.6103 11.7156 20.9458 11.0512 20.1359 11.0512H19.6169C18.9141 11.0539 18.6779 11.0622 17.9146 10.7437C17.4232 10.5405 16.9811 10.2385 16.6077 9.86782C14.0515 7.31163 15.9186 2.99549 19.4522 2.99549C21.6624 2.99549 23.4801 4.8131 23.4801 7.02334V12.575C23.4801 14.464 26.4261 14.464 26.4261 12.575V7.02334C26.4261 4.18984 24.7019 1.65287 22.1127 0.576584V0.579329ZM78.1512 11.0594H72.6571C71.8746 11.0594 71.2349 11.6992 71.2349 12.4817V12.575C71.2349 13.3575 71.8746 13.9973 72.6571 13.9973H78.1512C81.9017 13.9973 83.8044 9.4395 81.1357 6.7927C80.3449 6.00745 79.2879 5.55442 78.1512 5.55442H75.1529C73.7472 5.55442 73.3792 3.61051 74.6669 3.08609C74.8207 3.02569 74.9854 2.99 75.1529 2.99H80.0045C80.7897 2.99 81.4267 2.35026 81.4267 1.56776V1.47441C81.4267 0.689155 80.787 0.0521671 80.0045 0.0521671H75.1529C71.4216 0.0521671 69.4887 4.60992 72.1684 7.25672C72.9647 8.04197 74.0135 8.495 75.1529 8.495H78.1512C78.725 8.495 79.049 8.86566 79.0572 8.86566L79.0655 8.87389C79.7024 9.51088 79.4883 10.6036 78.6454 10.9606C78.4944 11.0265 78.3269 11.0622 78.1539 11.0622L78.1512 11.0594ZM4.61753 8.495H4.23589C2.51712 8.495 0.979565 7.44342 0.326103 5.87566C-0.741949 3.32222 1.14705 1.29869 1.24589 1.29869L1.25413 1.29045C2.04213 0.502451 3.10194 0.0494214 4.23589 0.0494214H9.08743C9.87268 0.0494214 10.5097 0.689155 10.5097 1.47166V1.56501C10.5097 2.35026 9.86993 2.98725 9.08743 2.98725H4.23589C4.06841 2.98725 3.90367 3.02294 3.74991 3.08609C2.90426 3.4293 2.6846 4.53304 3.32434 5.17552L3.33257 5.18376C3.34081 5.18376 3.6648 5.55442 4.23863 5.55442H7.23687C8.37356 5.55442 9.42514 6.00745 10.2214 6.7927C12.8929 9.43126 10.9956 13.9973 7.23687 13.9973H1.74011C0.954854 13.9973 0.317867 13.3575 0.317867 12.575V12.4817C0.317867 11.6992 0.9576 11.0594 1.74011 11.0594H7.23138C7.40435 11.0594 7.56909 11.0237 7.72285 10.9606L8.13744 10.6805C8.78541 10.0326 8.56576 8.92881 7.71736 8.58835C7.28355 8.41263 5.2655 8.49225 4.61479 8.49225L4.61753 8.495ZM65.4746 0.579329C70.0433 2.47656 71.2788 8.41812 67.7424 11.9545C64.2061 15.4881 58.2645 14.2553 56.3673 9.6866C54.0005 3.99215 59.7801 -1.78741 65.4746 0.579329ZM64.3488 3.30575C63.3632 2.8939 62.2649 2.8939 61.2792 3.30575C57.968 4.6868 57.968 9.36536 61.2792 10.7464C63.8189 11.8062 65.6558 9.87056 65.6585 9.87056C67.7013 7.82781 66.9901 4.40675 64.3488 3.30849V3.30575Z" fill="white"/>
</g>
<defs>
<clipPath id="clip0_2001_7641">
<rect width="82.3828" height="14" fill="white"/>
</clipPath>
</defs>
</svg>
