<svg width="29" height="29" viewBox="0 0 29 29" fill="none" xmlns="http://www.w3.org/2000/svg">
<path d="M14.3076 0C22.2096 0 28.6161 6.40571 28.6162 14.3076C28.6162 22.2096 22.2096 28.6162 14.3076 28.6162C6.40571 28.6161 0 22.2096 0 14.3076C0.000140702 6.4058 6.4058 0.000140711 14.3076 0ZM14.9678 6.56348C10.3897 6.56362 7.99707 9.47661 7.99707 12.7021C7.99707 14.2629 8.82897 15.8238 10.1816 16.6562C10.5978 16.8644 10.4935 16.6559 10.8057 15.4072C10.8057 15.3034 10.8058 15.1996 10.7021 15.0957C8.82925 12.8066 10.3898 8.3322 14.7598 8.33203C21.1069 8.33203 19.8583 17.0723 15.9043 17.0723C15.072 17.1761 14.3438 16.552 14.3438 15.7197V15.3037C14.76 14.1591 15.0717 13.1182 15.1758 11.9736C15.1756 9.7887 11.9502 10.1013 11.9502 13.0146C11.9502 13.5347 12.0547 14.0546 12.2627 14.4707C12.2627 14.4707 11.2218 18.7375 11.0137 19.4658C10.8056 20.7143 10.9101 21.963 11.1182 23.1074C11.0151 23.2105 11.1164 23.2109 11.1182 23.2109H11.2227C11.9509 22.1706 12.5751 21.1297 12.9912 19.9854C13.0948 19.4678 13.6088 17.616 13.6152 17.5928C14.1355 18.3211 15.0723 18.7373 16.0088 18.7373C19.2343 18.7372 21.5234 15.9278 21.5234 12.4941C21.5234 9.06042 18.6096 6.56348 14.9678 6.56348Z" fill="white"/>
</svg>
