<svg width="29" height="29" viewBox="0 0 29 29" fill="none" xmlns="http://www.w3.org/2000/svg">
<path d="M14.3076 0C22.2096 0 28.6161 6.40571 28.6162 14.3076C28.6162 22.2096 22.2096 28.6162 14.3076 28.6162C6.40571 28.6161 0 22.2096 0 14.3076C0.000140702 6.4058 6.4058 0.000140711 14.3076 0ZM8.04785 19.374H10.4434V16.1367H14.916L17.3047 19.4648H20.0264L17.5195 15.9717C18.792 15.5474 19.7099 14.3478 19.71 12.9326C19.7099 11.1631 18.2753 9.72866 16.5059 9.72852H8.04785V19.374ZM16.123 11.7998C16.7754 11.8 17.3047 12.3291 17.3047 12.9814C17.3045 13.6336 16.7752 14.162 16.123 14.1621H10.3457V11.7998H16.123ZM20.4141 7.13379C19.669 7.13379 19.0655 7.73738 19.0654 8.48242C19.0654 9.2275 19.669 9.83203 20.4141 9.83203C21.1591 9.83203 21.7627 9.2275 21.7627 8.48242C21.7627 7.73738 21.1591 7.13379 20.4141 7.13379Z" fill="white"/>
</svg>
