<svg width="119" height="21" viewBox="0 0 119 21" fill="none" xmlns="http://www.w3.org/2000/svg">
<g clip-path="url(#clip0_2001_8844)">
<path fill-rule="evenodd" clip-rule="evenodd" d="M76.3778 0.0712082H72.7857C63.9164 0.0712082 59.3353 10.8751 65.6847 17.2205C67.5559 19.0917 70.0917 20.1677 72.7857 20.1677H76.3778C77.5092 20.1677 78.427 19.246 78.427 18.1185V17.9722C78.427 16.8407 77.5052 15.9229 76.3778 15.9229H72.7857C67.6983 15.9229 65.0042 9.70409 68.6873 6.02105C69.7633 4.94501 71.235 4.31601 72.7857 4.31601H76.3778C77.5092 4.31601 78.427 3.39426 78.427 2.26679V2.12042C78.427 0.989003 77.5052 0.0712082 76.3778 0.0712082ZM54.3626 0.834718C58.0931 2.38547 60.5775 6.04083 60.5775 10.1234V18.1225C60.5775 19.2539 59.6557 20.1717 58.5283 20.1717H58.3819C57.2505 20.1717 56.3327 19.2499 56.3327 18.1225V10.1234C56.3327 8.57663 55.7037 7.10499 54.6276 6.025C50.9446 2.34196 44.7257 5.03996 44.7257 10.1234V18.1225C44.7257 19.2539 43.804 20.1717 42.6765 20.1717H42.5302C41.3987 20.1717 40.4809 19.2499 40.4809 18.1225V2.04921C40.4809 0.917794 41.4027 0 42.5302 0H42.6765C43.7684 0 44.6664 0.858454 44.7257 1.93844C47.4 0.0395601 50.9762 -0.573621 54.3665 0.834718H54.3626ZM31.8608 0.834718C23.656 -2.57536 15.3286 5.75204 18.7387 13.9568C20.3528 17.8376 24.0002 20.1717 28.2648 20.1717H29.0125C30.1795 20.1717 31.1369 19.2143 31.1369 18.0473C31.1369 16.8803 30.1795 15.9229 29.0125 15.9229H28.2648C27.2521 15.9269 26.9118 15.9388 25.8121 15.4799C25.1039 15.1871 24.467 14.752 23.929 14.2179C20.246 10.5349 22.936 4.31601 28.0274 4.31601C31.212 4.31601 33.8309 6.93489 33.8309 10.1195V18.1185C33.8309 20.8403 38.0757 20.8403 38.0757 18.1185V10.1195C38.0757 6.03687 35.5913 2.38152 31.8608 0.830762V0.834718ZM112.603 15.9348H104.687C103.56 15.9348 102.638 16.8566 102.638 17.984V18.1185C102.638 19.246 103.56 20.1677 104.687 20.1677H112.603C118.007 20.1677 120.748 13.6008 116.903 9.78717C115.764 8.65575 114.241 8.00301 112.603 8.00301H108.283C106.258 8.00301 105.727 5.20215 107.583 4.44656C107.804 4.35952 108.042 4.30809 108.283 4.30809H115.273C116.405 4.30809 117.322 3.38634 117.322 2.25888V2.12438C117.322 0.992959 116.401 0.0751642 115.273 0.0751642H108.283C102.907 0.0751642 100.122 6.64214 103.983 10.4557C105.13 11.5872 106.641 12.2399 108.283 12.2399H112.603C113.43 12.2399 113.897 12.774 113.908 12.774L113.92 12.7858C114.838 13.7036 114.53 15.2781 113.315 15.7924C113.097 15.8873 112.856 15.9388 112.607 15.9388L112.603 15.9348ZM6.6531 12.2399H6.10322C3.62676 12.2399 1.41139 10.7247 0.469861 8.46586C-1.06903 4.78677 1.65271 1.87119 1.79512 1.87119L1.80699 1.85932C2.94237 0.72395 4.46939 0.0712082 6.10322 0.0712082H13.0935C14.2249 0.0712082 15.1427 0.992959 15.1427 2.12042V2.25493C15.1427 3.38634 14.221 4.30414 13.0935 4.30414H6.10322C5.8619 4.30414 5.62454 4.35557 5.40301 4.44656C4.18455 4.94106 3.86807 6.53137 4.78982 7.45708L4.80169 7.46895C4.81356 7.46895 5.28037 8.00301 6.10718 8.00301H10.4271C12.0649 8.00301 13.5801 8.65575 14.7273 9.78717C18.5765 13.5889 15.8429 20.1677 10.4271 20.1677H2.50721C1.37579 20.1677 0.457993 19.246 0.457993 18.1185V17.984C0.457993 16.8566 1.37974 15.9348 2.50721 15.9348H10.4192C10.6685 15.9348 10.9058 15.8834 11.1274 15.7924L11.7247 15.3889C12.6583 14.4553 12.3418 12.8649 11.1194 12.3744C10.4944 12.1212 7.58672 12.2359 6.64915 12.2359L6.6531 12.2399ZM94.3381 0.834718C100.921 3.56832 102.701 12.1291 97.6057 17.2245C92.5104 22.3159 83.9496 20.5396 81.216 13.9568C77.8059 5.75204 86.1333 -2.57536 94.3381 0.834718ZM92.7161 4.76304C91.2959 4.16963 89.7135 4.16963 88.2933 4.76304C83.5223 6.75291 83.5223 13.4939 88.2933 15.4838C91.9526 17.0108 94.5992 14.2219 94.6031 14.2219C97.5464 11.2786 96.5218 6.3494 92.7161 4.76699V4.76304Z" fill="white"/>
</g>
<defs>
<clipPath id="clip0_2001_8844">
<rect width="118.7" height="20.1717" fill="white"/>
</clipPath>
</defs>
</svg>
