<svg width="29" height="29" viewBox="0 0 29 29" fill="none" xmlns="http://www.w3.org/2000/svg">
<path d="M14.3079 0C6.39917 0 0 6.39917 0 14.3079C0 22.2166 6.39917 28.6158 14.3079 28.6158C22.2166 28.6158 28.6158 22.2166 28.6158 14.3079C28.6158 6.39917 22.2166 0 14.3079 0ZM21.4618 7.84308L18.7053 21.068C18.6396 21.3306 18.4755 21.5275 18.213 21.6259C18.1146 21.6587 18.0161 21.6915 17.9177 21.6915C17.7536 21.6915 17.5895 21.6259 17.4582 21.5274L13.7172 18.8037C13.6187 18.7381 13.4547 18.7381 13.3562 18.8037L11.2888 20.5101C11.0919 20.6742 10.8294 20.7399 10.5668 20.6414C10.3043 20.5758 10.1402 20.3789 10.0418 20.1164L8.63067 15.6205L5.0537 14.2751C4.75835 14.1766 4.56146 13.8813 4.56146 13.5531C4.56146 13.2249 4.75835 12.9296 5.0537 12.8311L20.3789 6.92423C20.6414 6.82578 20.9368 6.85859 21.1665 7.05549C21.429 7.2852 21.5275 7.58055 21.4618 7.84308Z" fill="white"/>
<path d="M17.0947 10.1081L10.4987 14.1773C10.1377 14.407 9.94079 14.8665 10.0721 15.2931L10.794 17.7871C10.8596 17.984 11.0565 18.1481 11.2534 18.1481H11.2863C11.516 18.1153 11.7129 17.9512 11.7457 17.7215L11.9426 16.3432C11.9754 16.1463 12.041 15.9822 12.2051 15.851L17.6198 10.7973C17.7839 10.6332 17.8167 10.4035 17.6854 10.2066C17.5213 10.0425 17.2916 10.0097 17.0947 10.1081Z" fill="white"/>
</svg>
