<svg width="29" height="29" viewBox="0 0 29 29" fill="none" xmlns="http://www.w3.org/2000/svg">
<path d="M14.3075 0C6.39766 0 0 6.39766 0 14.3075C0 22.2173 6.39766 28.615 14.3075 28.615C22.2173 28.615 28.615 22.2173 28.615 14.3075C28.615 6.39766 22.2173 0 14.3075 0ZM21.4031 19.5032H19.697C19.0379 19.5032 18.844 18.9991 17.7196 17.8359C16.7115 16.8666 16.2849 16.7502 16.0523 16.7502C15.7033 16.7502 15.6258 16.8278 15.6258 17.3318V18.844C15.6258 19.2705 15.5095 19.5032 14.4238 19.5032C12.6402 19.5032 10.6628 18.4175 9.26692 16.4013C7.17314 13.4545 6.59153 11.2444 6.59153 10.7791C6.59153 10.5464 6.66908 10.3138 7.17313 10.3138H8.87918C9.30569 10.3138 9.46078 10.5077 9.65465 10.9729C10.4689 13.3769 11.8648 15.5095 12.4464 15.5095C12.679 15.5095 12.7565 15.3932 12.7565 14.8503V12.3688C12.679 11.2056 12.0974 11.1281 12.0974 10.7015C12.0974 10.5077 12.2525 10.3138 12.5239 10.3138H15.1993C15.5483 10.3138 15.6646 10.5077 15.6646 10.9342V14.2687C15.6646 14.6177 15.8197 14.734 15.936 14.734C16.1686 14.734 16.3237 14.6177 16.7115 14.2299C17.9134 12.8729 18.8052 10.7791 18.8052 10.7791C18.9216 10.5464 19.1154 10.3138 19.5419 10.3138H21.248C21.752 10.3138 21.8684 10.5852 21.752 10.9342C21.5194 11.9035 19.4644 14.8115 19.4644 14.8115C19.2705 15.083 19.2318 15.2381 19.4644 15.5483C19.6583 15.7809 20.2399 16.2849 20.6276 16.7502C21.3643 17.5645 21.9071 18.2624 22.0622 18.7277C22.1398 19.2705 21.9071 19.5032 21.4031 19.5032Z" fill="white"/>
</svg>
